<?xml version="1.0" encoding="utf-8"?>
<!-- Generator: Adobe Illustrator 19.2.0, SVG Export Plug-In . SVG Version: 6.00 Build 0)  -->
<svg version="1.1" id="Filled_Icons" xmlns="http://www.w3.org/2000/svg" xmlns:xlink="http://www.w3.org/1999/xlink" x="0px"
	 y="0px" viewBox="0 0 30 30" style="enable-background:new 0 0 30 30;" xml:space="preserve">
<path d="M19.7,17.1c1-1.6,1.6-3.5,1.6-5.4c0-2.7-1.1-5.2-3-7.2c-1.9-2-4.5-3-7.2-3c-2.7,0-5.2,1-7.1,2.9c-1.9,1.9-3,4.5-3,7.2
	c0,2.7,1.1,5.2,3,7.2s4.5,3,7.2,3c2.4,0,4.7-0.8,6.5-2.4l9.2,9.2l2.1-2.2L19.7,17.1z M11.2,19.2c-4.3,0-7.7-3.5-7.7-7.7
	s3.5-7.7,7.7-7.7s7.7,3.5,7.7,7.7S15.4,19.2,11.2,19.2z"/>
</svg>
