<?xml version="1.0" encoding="utf-8"?>
<!-- Generator: Adobe Illustrator 19.2.0, SVG Export Plug-In . SVG Version: 6.00 Build 0)  -->
<svg version="1.1" id="_x36_739c9d7-03d6-48f6-800b-fe098a5c3eec"
	 xmlns="http://www.w3.org/2000/svg" xmlns:xlink="http://www.w3.org/1999/xlink" x="0px" y="0px" viewBox="0 0 98 98"
	 style="enable-background:new 0 0 98 98;" xml:space="preserve">
<style type="text/css">
	.st0{fill:#FFFFFF;}
</style>
<title>logo</title>
<circle cx="49" cy="49" r="49"/>
<polygon class="st0" points="29.4,44.6 29.4,26.6 31.9,26.6 31.9,42.1 37,42.1 37,44.6 "/>
<path class="st0" d="M43.6,44.7c-0.5,0-1-0.1-1.6-0.3c-1.1-0.5-1.8-1.3-2.2-2.2c-0.2-0.4-0.3-1-0.3-1.6V26.6h2.5v13.6
	c0,0.7,0.1,1.1,0.5,1.4c0.3,0.3,0.7,0.5,1.2,0.5c0.4,0,0.8-0.2,1.2-0.5c0.4-0.4,0.5-1,0.5-1.4V26.6h2.5v13.9c0,0.6-0.1,1.2-0.4,1.6
	c-0.5,1-1.3,1.8-2.2,2.2C44.7,44.5,44.1,44.7,43.6,44.7z"/>
<path class="st0" d="M54.9,44.7c-0.4,0-0.9-0.1-1.5-0.2c-0.5-0.1-1-0.4-1.3-0.7c-0.5-0.3-0.7-0.8-0.9-1.3c-0.2-0.7-0.5-1.4-0.4-2.1
	l0-9.8c0-0.6,0.1-1.2,0.4-1.6c0.2-0.4,0.5-0.9,0.8-1.3c0.2-0.2,0.8-0.7,1.3-0.8c0.5-0.2,1.1-0.3,1.7-0.3c0.6,0,1.2,0.1,1.6,0.4
	c0.4,0.2,0.9,0.5,1.3,0.8c0.5,0.5,0.7,0.9,0.8,1.4c0.2,0.5,0.3,1.1,0.3,1.7v0.9h-2.5v-0.8c0-0.5-0.2-0.9-0.5-1.4
	c-0.3-0.3-0.7-0.5-1.2-0.5c-0.1,0-0.2,0-0.2,0c-0.4,0-0.8,0.2-1,0.6c-0.2,0.5-0.3,1-0.3,1.5v9.2c0,0.6,0.1,1,0.4,1.4
	c0.3,0.4,0.7,0.6,1.1,0.6c0.1,0,0.1,0,0.2,0c0.2,0,0.4,0,0.6-0.1l0.7-0.3c0.1-0.1,0.2-0.3,0.3-0.5c0.1-0.3,0.2-0.6,0.2-0.9v-0.8h2.5
	v1c0,0.6-0.1,1-0.4,1.5c-0.2,0.4-0.5,0.9-0.8,1.3c-0.4,0.4-0.8,0.7-1.3,0.9C55.9,44.6,55.3,44.7,54.9,44.7z"/>
<path class="st0" d="M68.1,44.6l-0.8-3.9h-3.6L63,44.6h-2.5l4-17.8h2.1l4,17.8H68.1z M67,38.4l-1.3-6.6h-0.2l0,0.1l-1.2,6.6H67z"/>
<path class="st0" d="M20.9,67.4l-2.4-7.7h-1.6v7.7h-2.5V49.5h4.1c3,0,4.5,1.8,4.5,5.3c0,1-0.1,1.9-0.5,2.7c-0.4,0.8-0.9,1.4-1.8,1.8
	l2.8,8.2H20.9z M18.3,57.5c0.3,0,0.7-0.1,1.1-0.2c0.2-0.1,0.4-0.2,0.6-0.5c0.2-0.3,0.3-0.6,0.3-0.8c0.1-0.9,0.1-1.6,0-2.5
	c0-0.3-0.2-0.7-0.3-0.9c-0.2-0.3-0.3-0.4-0.7-0.5c-0.4-0.1-0.8-0.2-1.2-0.2h-1.4l0.1,5.7H18.3z"/>
<path class="st0" d="M29.9,67.5c-0.6,0-1-0.1-1.5-0.2c-0.5-0.2-0.9-0.5-1.4-0.8c-0.5-0.4-0.8-0.9-1-1.4c-0.2-0.6-0.3-1.2-0.3-1.9
	v-9.5c0-0.7,0.1-1.3,0.3-1.8c0.2-0.5,0.6-0.9,0.9-1.4c0.4-0.4,0.9-0.7,1.4-0.9c0.5-0.2,1.1-0.3,1.6-0.3c0.5,0,1,0.1,1.6,0.3
	c0.5,0.2,0.9,0.5,1.4,0.8c0.5,0.4,0.8,0.9,1,1.4c0.2,0.5,0.3,1.2,0.3,1.8v9.5c0,0.6-0.1,1.2-0.3,1.9c-0.2,0.5-0.6,0.9-0.9,1.4
	c-0.4,0.4-0.9,0.7-1.4,0.9C30.9,67.4,30.3,67.5,29.9,67.5z M29.9,51.8c-0.5,0-0.9,0.2-1.2,0.5c-0.4,0.4-0.6,0.9-0.6,1.4v9.5
	c0,0.6,0.2,1.1,0.6,1.4c0.3,0.3,0.8,0.4,1.3,0.4c0.5,0,0.9-0.2,1.2-0.4c0.4-0.4,0.6-0.8,0.6-1.4v-9.5c0-0.6-0.2-1.1-0.6-1.4
	C30.8,52,30.4,51.8,29.9,51.8z"/>
<polygon class="st0" points="43.6,67.4 39.6,56.5 39.5,56.5 39.5,67.4 37,67.4 37,49.5 39.4,49.5 43.3,60.3 43.4,60.3 43.4,49.5 
	45.9,49.5 45.9,67.4 "/>
<path class="st0" d="M53,67.5c-0.4,0-0.9-0.1-1.5-0.2c-0.5-0.1-1-0.4-1.3-0.7c-0.5-0.3-0.7-0.8-0.9-1.3c-0.2-0.7-0.5-1.4-0.4-2.1
	l0-9.8c0-0.6,0.1-1.2,0.4-1.6c0.2-0.4,0.5-0.9,0.8-1.3c0.2-0.2,0.8-0.7,1.3-0.8c0.5-0.2,1.1-0.3,1.7-0.3c0.6,0,1.2,0.1,1.6,0.4
	c0.4,0.2,0.9,0.5,1.3,0.8c0.5,0.5,0.7,0.9,0.8,1.4c0.2,0.5,0.3,1.1,0.3,1.7v0.9h-2.5v-0.8c0-0.5-0.2-0.9-0.5-1.4
	c-0.3-0.3-0.7-0.5-1.2-0.5c-0.1,0-0.2,0-0.2,0c-0.4,0-0.8,0.2-1,0.6c-0.2,0.5-0.3,1-0.3,1.5v9.2c0,0.6,0.1,1,0.4,1.4
	c0.3,0.4,0.7,0.6,1.1,0.6c0.1,0,0.1,0,0.2,0c0.2,0,0.4,0,0.6-0.1l0.7-0.3c0.1-0.1,0.2-0.3,0.3-0.5c0.1-0.3,0.2-0.6,0.2-0.9v-0.8h2.5
	v1c0,0.6-0.1,1-0.4,1.5c-0.2,0.5-0.5,0.9-0.8,1.3c-0.4,0.4-0.8,0.7-1.3,0.9C54,67.4,53.5,67.5,53,67.5z"/>
<path class="st0" d="M64,67.5c-0.6,0-1-0.1-1.5-0.2c-0.5-0.2-0.9-0.5-1.4-0.8c-0.5-0.4-0.8-0.9-1-1.4c-0.2-0.6-0.3-1.2-0.3-1.9v-9.5
	c0-0.7,0.1-1.2,0.3-1.8c0.2-0.5,0.6-0.9,0.9-1.4c0.4-0.4,0.9-0.7,1.4-0.9c0.5-0.2,1.1-0.3,1.6-0.3c0.5,0,1,0.1,1.6,0.3
	c0.5,0.2,0.9,0.5,1.4,0.8c0.5,0.4,0.8,0.9,1,1.4c0.2,0.5,0.3,1.2,0.3,1.8v9.5c0,0.7-0.1,1.2-0.3,1.9c-0.2,0.5-0.6,0.9-0.9,1.4
	c-0.4,0.4-0.9,0.7-1.4,0.9C65,67.4,64.5,67.5,64,67.5z M64,51.8c-0.5,0-0.9,0.2-1.2,0.5c-0.4,0.4-0.6,0.9-0.6,1.4v9.5
	c0,0.6,0.2,1.1,0.6,1.4c0.3,0.3,0.8,0.4,1.3,0.4c0.5,0,0.9-0.2,1.2-0.4c0.4-0.4,0.6-0.8,0.6-1.4v-9.5c0-0.6-0.2-1.1-0.6-1.4
	C64.9,51.9,64.5,51.8,64,51.8z"/>
<polygon class="st0" points="77.7,67.4 73.8,56.5 73.6,56.5 73.6,67.4 71.1,67.4 71.1,49.5 73.6,49.5 77.5,60.3 77.6,60.3 
	77.6,49.5 80.1,49.5 80.1,67.4 "/>
<rect x="83.2" y="49.5" class="st0" width="2.5" height="17.8"/>
</svg>
